<svg xmlns="http://www.w3.org/2000/svg" viewBox="0 0 1440 320">
  <path fill="#0099ff" fill-opacity="1" d="M0,32L24,80C48,128,96,224,144,261.3C192,299,240,277,288,245.3C336,213,384,171,432,165.3C480,160,528,192,576,181.3C624,171,672,117,720,112C768,107,816,149,864,176C912,203,960,213,1008,186.7C1056,160,1104,96,1152,90.7C1200,85,1248,139,1296,160C1344,181,1392,171,1416,165.3L1440,160L1440,320L1416,320C1392,320,1344,320,1296,320C1248,320,1200,320,1152,320C1104,320,1056,320,1008,320C960,320,912,320,864,320C816,320,768,320,720,320C672,320,624,320,576,320C528,320,480,320,432,320C384,320,336,320,288,320C240,320,192,320,144,320C96,320,48,320,24,320L0,320Z"></path>
</svg>